<svg width="115" height="116" fill="none" xmlns="http://www.w3.org/2000/svg"><path fill="#E5E5E5" d="M0 0h115v116H0z"/><path fill="#fff" d="M-470-309H970V715H-470z"/><path fill="#0083FC" d="M0 .738h114.865v114.865H0z"/><path d="M27.027 67.45V46.008h5.125v8.86l10.042-8.86h5.985l-7.36 6.727 8.53 14.715h-5.641l-6.225-10.781h-.895l-4.436 3.874v6.907h-5.125ZM54.023 71.684H50l10.387-27.027h3.92L54.024 71.684ZM82.507 60.603h5.33c-.366 2.182-1.467 3.934-3.3 5.255-1.812 1.322-4.128 1.982-6.948 1.982-3.692 0-6.58-1.01-8.667-3.033-2.064-2.042-3.096-4.735-3.096-8.078 0-3.343 1.043-6.026 3.13-8.048 2.087-2.042 4.964-3.063 8.633-3.063 2.682 0 4.918.61 6.706 1.832 1.789 1.2 2.89 2.802 3.302 4.804h-5.365c-.573-1.761-2.121-2.642-4.643-2.642-2.11 0-3.726.67-4.85 2.012-1.1 1.321-1.65 3.023-1.65 5.105 0 2.082.55 3.794 1.65 5.135 1.124 1.322 2.74 1.982 4.85 1.982 1.307 0 2.384-.28 3.233-.84a3.921 3.921 0 0 0 1.685-2.403Z" fill="#E6E6E6"/></svg>
